<svg width="20" height="16" viewBox="0 0 20 16" fill="none" xmlns="http://www.w3.org/2000/svg">
<path d="M0 7.50049L0.00985866 10.9779L7.00356 15.0422L6.9937 11.5648L0 7.50049Z" fill="#59B14A"/>
<path d="M6.99426 11.5649L7.00412 15.0423L19.996 7.54146L19.9862 4.06401L6.99426 11.5649Z" fill="#4CA950"/>
<path d="M0 7.50089L6.9937 11.5652L19.9856 4.06429L12.9919 0L0 7.50089Z" fill="#78E75A"/>
<path d="M13.0061 3.13982C12.5703 3.39142 12.568 3.79742 13.001 4.04903C13.4315 4.29921 14.1324 4.29921 14.5682 4.04761C15.0015 3.79744 15.0062 3.39001 14.5757 3.13983C14.1428 2.88823 13.4394 2.88965 13.0061 3.13982Z" fill="#5EC363"/>
<path d="M7.9209 4.57933C6.77201 5.24265 6.76347 6.32197 7.90981 6.98815C9.05369 7.65291 10.9171 7.65149 12.066 6.98817C13.2198 6.322 13.2259 5.2441 12.082 4.57935C10.9356 3.91317 9.07475 3.91316 7.9209 4.57933Z" fill="#5EC363"/>
<path d="M11.8892 1.58727C12.4944 1.93894 13.4766 1.93895 14.0833 1.58871L17.2492 3.42857C16.6426 3.77881 16.6394 4.34778 17.2446 4.69945L8.10293 9.97738C7.49778 9.62571 6.51551 9.6257 5.90639 9.97737L2.74042 8.13751C3.34953 7.78584 3.35273 7.21687 2.74758 6.86519L11.8892 1.58727ZM12.0661 6.98817C13.22 6.322 13.226 5.2441 12.0821 4.57935C10.9358 3.91317 9.07492 3.91316 7.92107 4.57934C6.77218 5.24265 6.76363 6.32197 7.90997 6.98815C9.05385 7.65291 10.9172 7.65149 12.0661 6.98817ZM6.98378 8.4263C7.41957 8.17469 7.42186 7.76869 6.99136 7.51852C6.55841 7.26691 5.85748 7.26691 5.42169 7.51851C4.98838 7.76868 4.98363 8.17611 5.41658 8.42772C5.84708 8.67789 6.55047 8.67647 6.98378 8.4263ZM14.568 4.04757C15.0013 3.79739 15.006 3.38996 14.5755 3.13978C14.1426 2.88818 13.4392 2.8896 13.0059 3.13978C12.5701 3.39138 12.5678 3.79738 13.0008 4.04898C13.4313 4.29916 14.1322 4.29916 14.568 4.04757Z" fill="#72D561"/>
<path d="M5.42117 7.51853C4.98786 7.7687 4.9831 8.17613 5.41605 8.42774C5.84655 8.67792 6.54995 8.67649 6.98326 8.42632C7.41905 8.17472 7.42133 7.76872 6.99083 7.51854C6.55788 7.26694 5.85695 7.26693 5.42117 7.51853Z" fill="#5EC363"/>
<path d="M11.2703 6.05156C11.3206 5.96487 11.3342 5.88731 11.3068 5.80975C11.2795 5.73216 11.2202 5.66373 11.1198 5.60441C10.9966 5.53596 10.8688 5.49491 10.7319 5.49034C10.5996 5.48121 10.4718 5.49034 10.3441 5.52229C10.2392 5.5451 10.1114 5.58614 9.96994 5.63179L9.43153 5.32152C9.55927 5.25763 9.68705 5.20745 9.82393 5.17094C9.85587 5.16181 9.87868 5.1527 9.89695 5.14356C9.938 5.12075 9.9517 5.08881 9.94713 5.05687C9.94256 5.02493 9.91976 4.99755 9.88781 4.97931C9.81936 4.93823 9.73266 4.9291 9.64597 4.95193C9.47261 4.99755 9.30376 5.06144 9.13493 5.14813L8.99349 5.066C8.96154 5.04773 8.92049 5.03863 8.87485 5.03863C8.82923 5.03863 8.78818 5.04773 8.75624 5.066C8.7243 5.08424 8.70603 5.10705 8.70603 5.13443C8.70603 5.16181 8.7243 5.18461 8.75624 5.20288L8.90225 5.28958C8.80642 5.36257 8.7334 5.43559 8.70149 5.51315C8.65584 5.59528 8.65584 5.67741 8.69235 5.75043C8.7243 5.82799 8.78818 5.89188 8.88398 5.94663C8.99349 6.01049 9.11669 6.047 9.249 6.05613C9.37678 6.06527 9.50452 6.05613 9.6323 6.02875C9.73723 6.00595 9.86501 5.96944 9.99732 5.92382L10.5175 6.22495C10.3715 6.29795 10.2118 6.3527 10.0338 6.38921C10.0065 6.39834 9.97908 6.40748 9.95627 6.42115C9.91519 6.44396 9.89238 6.4759 9.89695 6.50785C9.89695 6.53979 9.91976 6.56717 9.96081 6.58997C9.98818 6.60824 10.0247 6.62192 10.0703 6.62649L10.1981 6.61735C10.4171 6.56717 10.627 6.49417 10.8186 6.40291L10.9601 6.48504C10.9966 6.50785 11.0377 6.51698 11.0833 6.51698C11.1289 6.51241 11.1654 6.50328 11.2019 6.48504C11.2339 6.46677 11.2521 6.44396 11.2521 6.41658C11.2475 6.38921 11.2339 6.3664 11.2019 6.34816L11.0559 6.26603C11.1563 6.19301 11.2293 6.12456 11.2703 6.05156ZM9.18515 5.75497C9.12126 5.71392 9.08932 5.67284 9.09845 5.61809C9.11213 5.5679 9.14864 5.51772 9.20796 5.46753L9.66881 5.73673C9.56384 5.76867 9.47261 5.79148 9.39959 5.79605C9.31746 5.80518 9.24447 5.79148 9.18515 5.75497ZM10.7502 6.08807L10.2985 5.82342C10.4171 5.78234 10.5175 5.75954 10.595 5.75043C10.6772 5.74129 10.7365 5.74586 10.7867 5.7778C10.8825 5.83256 10.9783 5.92382 10.7502 6.08807Z" fill="black"/>
</svg>
